<svg width="74" height="28" viewBox="0 0 74 28" fill="none" xmlns="http://www.w3.org/2000/svg">
<path d="M63 22V11H65.1429V13.0625C65.1429 12.375 66.5714 11 68 11C72 11 73 13.75 73 15.125V22H70.8571V15.125C70.8571 13.75 69.4286 13.0625 68 13.0625C66.5714 13.0625 65.1429 14.0938 65.1429 15.125V22H63Z" fill="black"/>
<path d="M31 22V11H33V22H31Z" fill="black"/>
<path d="M46 22V11H48V22H46Z" fill="black"/>
<path d="M21 22L15 6H17.5L23.5 22H21Z" fill="black"/>
<path d="M23 16.5L27 6H29.5L24.25 20L23 16.5Z" fill="black"/>
<path d="M15 8.90909L13.2051 10.7273C12.6068 10 10.9077 8.54545 8.89744 8.54545C6.38462 8.54545 3.51282 10.7273 3.51282 14C3.51282 17.2727 6.38462 19.4545 8.89744 19.4545C10.9077 19.4545 12.6068 18 13.2051 17.2727L15 19.0909C14.2821 20.0606 12.0564 22 8.89744 22C4.94872 22 1 18.7273 1 14C1 9.27273 4.94872 6 8.89744 6C12.0564 6 14.2821 7.93939 15 8.90909Z" fill="black"/>
<circle cx="32" cy="8" r="1" fill="black"/>
<circle cx="47" cy="8" r="1" fill="black"/>
<path d="M55.5 11C58.5375 11 61 13.4625 61 16.5C60.9999 19.5374 58.5374 22 55.5 22C52.4627 21.9998 50.0001 19.5373 50 16.5C50 13.4626 52.4627 11.0002 55.5 11ZM55.5 13.0625C53.6017 13.0627 52.0625 14.6017 52.0625 16.5C52.0626 18.3982 53.6018 19.9373 55.5 19.9375C57.3984 19.9375 58.9374 18.3983 58.9375 16.5C58.9375 14.6015 57.3985 13.0625 55.5 13.0625Z" fill="black"/>
<path d="M40.0125 13.0547C40.9938 13.1298 41.9466 13.4248 42.8045 13.7975C43.0698 13.3554 43.2882 12.9387 43.5216 12.5296C43.5506 12.4789 43.5216 12.5296 43.6832 12.2132C41.9466 11.0015 39.6619 10.7013 37.7052 11.2953C36.4174 11.6863 35.6042 12.73 35.5462 13.9416C35.4733 15.4627 36.0023 16.3084 37.4357 16.907C37.8447 17.0778 38.2789 17.1964 38.7049 17.3295C39.344 17.5292 39.9977 17.6926 40.623 17.9243C41.1294 18.1118 41.548 18.4559 41.4471 19.0234C41.344 19.6028 40.8401 19.8327 40.266 19.8967C39.7737 19.9516 39.284 19.9235 38.7927 19.8206C37.8136 19.6156 37.06 19.1256 36.2157 18.6177L35 20.3697C36.0837 21.1332 36.6707 21.4269 37.6763 21.7246C39.0993 22.0822 40.5241 22.1409 41.911 21.6028C43.1848 21.1087 43.9299 20.2155 43.9952 18.895C44.0616 17.5512 43.4383 16.5857 42.1374 16.0027C41.3825 15.6644 40.5777 15.4643 39.7922 15.2095C39.3895 15.0789 38.9794 14.9534 38.6031 14.7703C38.246 14.5966 38.0167 14.2958 38.08 13.8881C38.1415 13.4919 38.4192 13.2542 38.8151 13.1422C39.2057 13.0316 39.5988 13.0231 40.0125 13.0547Z" fill="black"/>
</svg>
