<svg width="118" height="28" viewBox="0 0 118 28" fill="none" xmlns="http://www.w3.org/2000/svg">
<path d="M2 6V4C2 3.46957 2.21071 2.96086 2.58579 2.58579C2.96086 2.21071 3.46957 2 4 2H6" stroke="black" stroke-width="2" stroke-linecap="round" stroke-linejoin="round"/>
<path d="M34 2H36C36.5304 2 37.0391 2.21071 37.4142 2.58579C37.7893 2.96086 38 3.46957 38 4V6" stroke="black" stroke-width="2" stroke-linecap="round" stroke-linejoin="round"/>
<path d="M38 22V24C38 24.5304 37.7893 25.0391 37.4142 25.4142C37.0391 25.7893 36.5304 26 36 26H34" stroke="black" stroke-width="2" stroke-linecap="round" stroke-linejoin="round"/>
<path d="M6 26H4C3.46957 26 2.96086 25.7893 2.58579 25.4142C2.21071 25.0391 2 24.5304 2 24V22" stroke="black" stroke-width="2" stroke-linecap="round" stroke-linejoin="round"/>
<path d="M35 18C35 16.8954 34.1046 16 33 16C31.8954 16 31 16.8954 31 18V20C31 21.1046 31.8954 22 33 22C34.1046 22 35 21.1046 35 20V18Z" stroke="black" stroke-width="2" stroke-linecap="round" stroke-linejoin="round"/>
<path d="M27 8C27 6.89543 26.1046 6 25 6C23.8954 6 23 6.89543 23 8V10C23 11.1046 23.8954 12 25 12C26.1046 12 27 11.1046 27 10V8Z" stroke="black" stroke-width="2" stroke-linecap="round" stroke-linejoin="round"/>
<path d="M23 22H27" stroke="black" stroke-width="2" stroke-linecap="round" stroke-linejoin="round"/>
<path d="M31 12H35" stroke="black" stroke-width="2" stroke-linecap="round" stroke-linejoin="round"/>
<path d="M23 16H25V22" stroke="black" stroke-width="2" stroke-linecap="round" stroke-linejoin="round"/>
<path d="M31 6H33V12" stroke="black" stroke-width="2" stroke-linecap="round" stroke-linejoin="round"/>
<path d="M20 23H7C5.89543 23 5 22.1046 5 21V7C5 5.89543 5.89543 5 7 5H20" stroke="black" stroke-width="2" stroke-linecap="round" stroke-linejoin="round"/>
<path d="M11 13C12.1046 13 13 12.1046 13 11C13 9.89543 12.1046 9 11 9C9.89543 9 9 9.89543 9 11C9 12.1046 9.89543 13 11 13Z" stroke="black" stroke-width="2" stroke-linecap="round" stroke-linejoin="round"/>
<path d="M8 22.9999L17.086 13.9139C17.4611 13.539 17.9697 13.3284 18.5 13.3284C19.0303 13.3284 19.5389 13.539 19.914 13.9139L20.0001 14" stroke="black" stroke-width="2" stroke-linecap="round" stroke-linejoin="round"/>
<path d="M20 4V24" stroke="black" stroke-width="2" stroke-linecap="round"/>
<path d="M104 22V11H106.143V13.0625C106.143 12.375 107.571 11 109 11C113 11 114 13.75 114 15.125V22H111.857V15.125C111.857 13.75 110.429 13.0625 109 13.0625C107.571 13.0625 106.143 14.0938 106.143 15.125V22H104Z" fill="black"/>
<path d="M72 22V11H74V22H72Z" fill="black"/>
<path d="M87 22V11H89V22H87Z" fill="black"/>
<path d="M62 22L56 6H58.5L64.5 22H62Z" fill="black"/>
<path d="M64 16.5L68 6H70.5L65.25 20L64 16.5Z" fill="black"/>
<path d="M56 8.90909L54.2051 10.7273C53.6068 10 51.9077 8.54545 49.8974 8.54545C47.3846 8.54545 44.5128 10.7273 44.5128 14C44.5128 17.2727 47.3846 19.4545 49.8974 19.4545C51.9077 19.4545 53.6068 18 54.2051 17.2727L56 19.0909C55.2821 20.0606 53.0564 22 49.8974 22C45.9487 22 42 18.7273 42 14C42 9.27273 45.9487 6 49.8974 6C53.0564 6 55.2821 7.93939 56 8.90909Z" fill="black"/>
<circle cx="73" cy="8" r="1" fill="black"/>
<circle cx="88" cy="8" r="1" fill="black"/>
<path d="M96.5 11C99.5375 11 102 13.4625 102 16.5C102 19.5374 99.5374 22 96.5 22C93.4627 21.9998 91.0001 19.5373 91 16.5C91 13.4626 93.4627 11.0002 96.5 11ZM96.5 13.0625C94.6017 13.0627 93.0625 14.6017 93.0625 16.5C93.0626 18.3982 94.6018 19.9373 96.5 19.9375C98.3984 19.9375 99.9374 18.3983 99.9375 16.5C99.9375 14.6015 98.3985 13.0625 96.5 13.0625Z" fill="black"/>
<path d="M81.0125 13.0547C81.9938 13.1298 82.9466 13.4248 83.8045 13.7975C84.0698 13.3554 84.2882 12.9387 84.5216 12.5296C84.5506 12.4789 84.5216 12.5296 84.6832 12.2132C82.9466 11.0015 80.6619 10.7013 78.7052 11.2953C77.4174 11.6863 76.6042 12.73 76.5462 13.9416C76.4733 15.4627 77.0023 16.3084 78.4357 16.907C78.8447 17.0778 79.2789 17.1964 79.7049 17.3295C80.344 17.5292 80.9977 17.6926 81.623 17.9243C82.1294 18.1118 82.548 18.4559 82.4471 19.0234C82.344 19.6028 81.8401 19.8327 81.266 19.8967C80.7737 19.9516 80.284 19.9235 79.7927 19.8206C78.8136 19.6156 78.06 19.1256 77.2157 18.6177L76 20.3697C77.0837 21.1332 77.6707 21.4269 78.6763 21.7246C80.0993 22.0822 81.5241 22.1409 82.911 21.6028C84.1848 21.1087 84.9299 20.2155 84.9952 18.895C85.0616 17.5512 84.4383 16.5857 83.1374 16.0027C82.3825 15.6644 81.5777 15.4643 80.7922 15.2095C80.3895 15.0789 79.9794 14.9534 79.6031 14.7703C79.246 14.5966 79.0167 14.2958 79.08 13.8881C79.1415 13.4919 79.4192 13.2542 79.8151 13.1422C80.2057 13.0316 80.5988 13.0231 81.0125 13.0547Z" fill="black"/>
</svg>
