<svg width="30" height="18" viewBox="0 0 30 18" fill="none" xmlns="http://www.w3.org/2000/svg">
<path d="M21 17L15 1H17.5L23.5 17H21Z" fill="black"/>
<path d="M23 11.5L27 1H29.5L24.25 15L23 11.5Z" fill="black"/>
<path d="M15 3.90909L13.2051 5.72727C12.6068 5 10.9077 3.54545 8.89744 3.54545C6.38462 3.54545 3.51282 5.72727 3.51282 9C3.51282 12.2727 6.38462 14.4545 8.89744 14.4545C10.9077 14.4545 12.6068 13 13.2051 12.2727L15 14.0909C14.2821 15.0606 12.0564 17 8.89744 17C4.94872 17 1 13.7273 1 9C1 4.27273 4.94872 1 8.89744 1C12.0564 1 14.2821 2.93939 15 3.90909Z" fill="black"/>
</svg>
